<svg height="512pt" viewBox="-31 0 512 512" width="512pt" xmlns="http://www.w3.org/2000/svg"><path d="M425 0H45C20.187 0 0 20.188 0 45v377c0 8.285 6.715 15 15 15s15-6.715 15-15c0-16.543 13.457-30 30-30h375c8.285 0 15-6.715 15-15V25c0-13.785-11.215-25-25-25zm0 0" fill="#00c9c9"/><path d="M425 0H225v392h210c8.285 0 15-6.715 15-15V25c0-13.785-11.215-25-25-25zm0 0" fill="#00a1ac"/><path d="M318.82 138.52l-81-54A14.998 14.998 0 00214.5 97v98.074a59.585 59.585 0 00-30-8.074c-33.086 0-60 26.918-60 60 0 33.086 26.914 60 60 60s60-26.914 60-60V125.027l57.68 38.453c6.89 4.594 16.207 2.735 20.8-4.16 4.594-6.89 2.735-16.207-4.16-20.8zm0 0" fill="#3c3c3c"/><path d="M318.82 138.52l-81-54A15.002 15.002 0 00225 82.7v208.527c11.977-10.98 19.5-26.739 19.5-44.227V125.027l57.68 38.453c6.89 4.594 16.207 2.735 20.8-4.16 4.594-6.89 2.735-16.207-4.16-20.8zm0 0" fill="#2d2d2d"/><path d="M345 482H60c-33.086 0-60-26.914-60-60s26.914-60 60-60h285c8.285 0 15 6.715 15 15v90c0 8.285-6.715 15-15 15zm0 0" fill="#e1ebf0"/><path d="M345 362H225v120h120c8.285 0 15-6.715 15-15v-90c0-8.285-6.715-15-15-15zm0 0" fill="#cde1e6"/><path d="M435 512c-2.91 0-5.813-.848-8.32-2.52L390 485.027l-36.68 24.453A14.998 14.998 0 01330 497V377c0-8.285 6.715-15 15-15h90c8.285 0 15 6.715 15 15v120a15.01 15.01 0 01-7.922 13.227A15.033 15.033 0 01435 512zm0 0" fill="#dd002c"/><path d="M435 362h-45v123.027l36.68 24.453a15.005 15.005 0 0015.398.747A15.006 15.006 0 00450 497V377c0-8.285-6.715-15-15-15zm0 0" fill="#bf0032"/></svg>