<svg version="1.1" id="Layer_1" xmlns="http://www.w3.org/2000/svg" x="0" y="0" viewBox="0 0 512 512" xml:space="preserve"><path fill="#fff" d="M256 0C114.841 0 0 114.841 0 256s114.841 256 256 256 256-114.841 256-256S397.159 0 256 0zm0 468.732c-117.301 0-212.732-95.431-212.732-212.732S138.699 43.268 256 43.268 468.732 138.699 468.732 256 373.301 468.732 256 468.732z"/><path fill="#fff" d="M372.101 248.068H271.144V97.176c0-11.948-9.686-21.634-21.634-21.634s-21.634 9.686-21.634 21.634v172.525c0 11.948 9.686 21.634 21.634 21.634.244 0 .48-.029.721-.036.241.009.477.036.721.036h121.149c11.948 0 21.634-9.686 21.634-21.634s-9.686-21.633-21.634-21.633z"/></svg>