<svg height="512pt" viewBox="0 -56 512 512" width="512pt" xmlns="http://www.w3.org/2000/svg"><path d="M115.016 400c-5.297 0-10.43-2.809-13.16-7.777-3.989-7.262-1.34-16.38 5.917-20.371L489.77 161.855c7.261-3.992 16.382-1.343 20.37 5.918 3.993 7.258 1.344 16.38-5.917 20.368l-381.996 210a14.905 14.905 0 01-7.211 1.859zm0 0" fill="#3c3c3c"/><path d="M512 174.863a14.984 14.984 0 00-1.855-7.09c-3.993-7.261-13.11-9.91-20.372-5.918L256 290.367v34.235L504.227 188.14c4.968-2.73 7.777-7.871 7.773-13.172zm0 0" fill="#2d2d2d"/><path d="M396.984 400c-2.441 0-4.918-.598-7.21-1.86L7.776 188.146c-7.261-3.993-9.91-13.114-5.918-20.372 3.989-7.261 13.106-9.914 20.371-5.918l381.997 209.997c7.257 3.992 9.906 13.113 5.918 20.37-2.73 4.97-7.864 7.778-13.16 7.778zm0 0" fill="#505050"/><path d="M404.227 371.852L256 290.367v34.235l133.77 73.539a14.974 14.974 0 007.214 1.859c5.293 0 10.43-2.813 13.157-7.777 3.992-7.258 1.343-16.38-5.914-20.371zm0 0" fill="#3c3c3c"/><path d="M497 130H15.004c-8.285 0-15-6.719-15-15V15c0-8.285 6.715-15 15-15H497c8.281 0 15 6.715 15 15v100c0 8.281-6.719 15-15 15zm0 0" fill="#e1ebf0"/><path d="M497 0H256v130h241c8.281 0 15-6.719 15-15V15c0-8.285-6.719-15-15-15zm0 0" fill="#cde1e6"/><path d="M497 190H15.004c-8.285 0-15-6.719-15-15v-60c0-8.285 6.715-15 15-15H497c8.281 0 15 6.715 15 15v60c0 8.281-6.719 15-15 15zm0 0" fill="#00c9c9"/><path d="M497 100H256v90h241c8.281 0 15-6.719 15-15v-60c0-8.285-6.719-15-15-15zm0 0" fill="#00a1ac"/><path d="M196 70c-8.281 0-15-6.715-15-15V15c0-8.285 6.719-15 15-15 8.285 0 15 6.715 15 15v40c0 8.285-6.715 15-15 15zm-60 0c-8.281 0-14.996-6.715-14.996-15V15c0-8.285 6.715-15 14.996-15 8.285 0 15 6.715 15 15v40c0 8.285-6.715 15-15 15zm-59.996 0c-8.285 0-15-6.715-15-15V15c0-8.285 6.715-15 15-15 8.281 0 15 6.715 15 15v40c0 8.285-6.719 15-15 15zM256 70c-8.285 0-15-6.715-15-15V15c0-8.285 6.715-15 15-15s15 6.715 15 15v40c0 8.285-6.715 15-15 15zm0 0" fill="#3c3c3c"/><path d="M271 55V15c0-8.285-6.715-15-15-15v70c8.285 0 15-6.715 15-15zm45 15c-8.285 0-15-6.715-15-15V15c0-8.285 6.715-15 15-15s15 6.715 15 15v40c0 8.285-6.715 15-15 15zm60 0c-8.285 0-15-6.715-15-15V15c0-8.285 6.715-15 15-15s15 6.715 15 15v40c0 8.285-6.715 15-15 15zm60 0c-8.285 0-15-6.715-15-15V15c0-8.285 6.715-15 15-15 8.281 0 15 6.715 15 15v40c0 8.285-6.719 15-15 15zm0 0" fill="#2d2d2d"/></svg>