<svg height="512pt" viewBox="-41 0 512 512" width="512pt" xmlns="http://www.w3.org/2000/svg"><path d="M215 512a14.958 14.958 0 01-10.574-4.36L63.004 367.06C22.364 326.418 0 272.429 0 215S22.363 103.578 62.973 62.973C103.578 22.367 157.574 0 215 0c57.43 0 111.418 22.363 152.027 62.973C407.637 103.578 430 157.57 430 215s-22.363 111.422-62.973 152.027l-.03.032L225.573 507.64A14.958 14.958 0 01215 512zm141.422-155.578h.008zm0 0" fill="#dd002c"/><path d="M225.574 507.64l141.422-140.58c.012-.008.02-.02.031-.032C407.637 326.422 430 272.43 430 215s-22.363-111.422-62.973-152.027C326.418 22.363 272.43 0 215 0v512c3.824 0 7.648-1.453 10.574-4.36zm0 0" fill="#bf0032"/><path d="M215 360c-79.953 0-145-65.047-145-145S135.047 70 215 70s145 65.047 145 145-65.047 145-145 145zm0 0" fill="#e1ebf0"/><path d="M360 215c0-79.953-65.047-145-145-145v290c79.953 0 145-65.047 145-145zm0 0" fill="#cde1e6"/><path d="M283.32 169.52l-54-36A14.999 14.999 0 00206 146v57.578A44.814 44.814 0 00191 201c-24.813 0-45 20.188-45 45s20.188 45 45 45 45-20.188 45-45v-71.973l30.68 20.453c6.894 4.594 16.207 2.735 20.8-4.16 4.594-6.89 2.735-16.207-4.16-20.8zm0 0" fill="#3c3c3c"/><path d="M283.32 169.52l-54-36a14.994 14.994 0 00-14.32-1.262v151.781c12.605-7.984 21-22.047 21-38.039v-71.973l30.68 20.453c6.894 4.594 16.207 2.735 20.8-4.16 4.594-6.89 2.735-16.207-4.16-20.8zm0 0" fill="#2d2d2d"/></svg>