<svg height="512pt" viewBox="-81 0 512 512" width="512pt" xmlns="http://www.w3.org/2000/svg"><path d="M315 512H35c-19.3 0-35-15.7-35-35V33.613C0 15.078 15.7 0 35 0h280c19.3 0 35 15.078 35 33.613V477c0 19.3-15.7 35-35 35zm0 0" fill="#00c9c9"/><path d="M315 0H175v512h140c19.3 0 35-15.7 35-35V33.613C350 15.078 334.3 0 315 0zm0 0" fill="#00a1ac"/><path d="M175 210c-41.355 0-75-33.645-75-75s33.645-75 75-75 75 33.645 75 75-33.645 75-75 75zm0 242c-57.898 0-105-47.102-105-105s47.102-105 105-105 105 47.102 105 105-47.102 105-105 105zm0 0" fill="#3c3c3c"/><path d="M175 60v150c41.355 0 75-33.645 75-75s-33.645-75-75-75zm0 182v210c57.898 0 105-47.102 105-105s-47.102-105-105-105zm0 0" fill="#2d2d2d"/><path d="M175 392c-24.813 0-45-20.188-45-45s20.188-45 45-45 45 20.188 45 45-20.188 45-45 45zm0 0" fill="#e1ebf0"/><path d="M175 302v90c24.813 0 45-20.188 45-45s-20.188-45-45-45zm0 0" fill="#cde1e6"/></svg>