<svg height="512pt" viewBox="-121 0 512 512" width="512pt" xmlns="http://www.w3.org/2000/svg"><path d="M195 512c-41.355 0-75-33.645-75-75 0-8.285 6.715-15 15-15s15 6.715 15 15c0 24.813 20.188 45 45 45s45-20.188 45-45v-90c0-8.285 6.715-15 15-15s15 6.715 15 15v90c0 41.355-33.645 75-75 75zm0 0" fill="#3c3c3c"/><path d="M255 332c-8.285 0-15 6.715-15 15v90c0 24.813-20.188 45-45 45v30c41.355 0 75-33.645 75-75v-90c0-8.285-6.715-15-15-15zm0 0" fill="#2d2d2d"/><path d="M185 452H85c-7.762 0-14.242-5.922-14.938-13.652l-18.32-203.344a14.997 14.997 0 0123.488-13.672C92.832 233.547 113.5 240 135 240s42.168-6.453 59.77-18.668a14.997 14.997 0 0123.488 13.672L199.94 438.348C199.242 446.078 192.761 452 185 452zm0 0" fill="#00c9c9"/><path d="M185 452c7.762 0 14.242-5.922 14.938-13.652l18.32-203.344a14.997 14.997 0 00-23.488-13.672C177.168 233.547 156.5 240 135 240v212zm0 0" fill="#00a1ac"/><path d="M135 270C60.562 270 0 209.437 0 135c0-8.285 6.715-15 15-15h240c8.285 0 15 6.715 15 15 0 74.438-60.563 135-135 135zm0 0" fill="#9bb9c3"/><path d="M255 120H135v150c74.438 0 135-60.563 135-135 0-8.285-6.715-15-15-15zm0 0" fill="#87a0af"/><path d="M135 385c-8.285 0-15-6.715-15-15v-30c0-8.285 6.715-15 15-15s15 6.715 15 15v30c0 8.285-6.715 15-15 15zm0 0" fill="#ffdb2f"/><path d="M150 370v-30c0-8.285-6.715-15-15-15v60c8.285 0 15-6.715 15-15zm0 0" fill="#ffbd1c"/><path d="M255 150H15c-8.285 0-15-6.715-15-15C0 60.562 60.563 0 135 0s135 60.563 135 135c0 8.285-6.715 15-15 15zm0 0" fill="#b4d2d7"/><path d="M255 150c8.285 0 15-6.715 15-15C270 60.562 209.437 0 135 0v150zm0 0" fill="#9bb9c3"/></svg>