<svg height="512pt" viewBox="-61 0 512 512" width="512pt" xmlns="http://www.w3.org/2000/svg"><path d="M375 512H15c-8.285 0-15-6.715-15-15V17C0 7.625 7.625 0 17 0h356c9.375 0 17 7.625 17 17v480c0 8.285-6.715 15-15 15zm-2-482h.012zm0 0" fill="#e1ebf0"/><path d="M373 0H195v512h180c8.285 0 15-6.715 15-15V17c0-9.375-7.625-17-17-17zm0 0" fill="#cde1e6"/><path d="M260.32 98.52l-54-36A14.998 14.998 0 00183 75v57.578A44.814 44.814 0 00168 130c-24.813 0-45 20.188-45 45s20.188 45 45 45 45-20.188 45-45v-71.973l30.68 20.453c6.89 4.594 16.207 2.735 20.8-4.16 4.594-6.89 2.735-16.207-4.16-20.8zm0 0" fill="#dd002c"/><path d="M305 302H85c-8.285 0-15-6.715-15-15s6.715-15 15-15h220c8.285 0 15 6.715 15 15s-6.715 15-15 15zm0 60H85c-8.285 0-15-6.715-15-15s6.715-15 15-15h220c8.285 0 15 6.715 15 15s-6.715 15-15 15zm0 60H85c-8.285 0-15-6.715-15-15s6.715-15 15-15h220c8.285 0 15 6.715 15 15s-6.715 15-15 15zm0 0" fill="#3c3c3c"/><path d="M260.32 98.52l-54-36c-3.375-2.25-7.457-3-11.32-2.211v150.668c10.922-8.22 18-21.286 18-35.977v-71.973l30.68 20.453c6.89 4.598 16.207 2.735 20.8-4.16 4.594-6.89 2.735-16.207-4.16-20.8zm0 0" fill="#bf0032"/><path d="M305 272H195v30h110c8.285 0 15-6.715 15-15s-6.715-15-15-15zm0 60H195v30h110c8.285 0 15-6.715 15-15s-6.715-15-15-15zm0 60H195v30h110c8.285 0 15-6.715 15-15s-6.715-15-15-15zm0 0" fill="#2d2d2d"/></svg>