<svg width="14" height="14" fill="none" xmlns="http://www.w3.org/2000/svg"><path d="M7 0a5.255 5.255 0 00-5.25 5.25c0 3.64 4.739 8.42 4.94 8.622a.44.44 0 00.62 0c.201-.202 4.94-4.983 4.94-8.622A5.255 5.255 0 007 0zm0 12.93c-1.045-1.118-4.375-4.9-4.375-7.68A4.38 4.38 0 017 .875a4.38 4.38 0 014.375 4.375c0 2.777-3.33 6.562-4.375 7.68z" fill="#fff"/><path d="M7 2.625A2.628 2.628 0 004.375 5.25 2.628 2.628 0 007 7.875 2.628 2.628 0 009.625 5.25 2.628 2.628 0 007 2.625zM7 7c-.965 0-1.75-.785-1.75-1.75S6.035 3.5 7 3.5s1.75.785 1.75 1.75S7.965 7 7 7z" fill="#fff"/></svg>