<svg width="26" height="26" fill="none" xmlns="http://www.w3.org/2000/svg"><g clip-path="url(#clip0)" fill="#fff"><path d="M21.563 3.544c-5.041-.749-12.083-.749-17.126 0C2.42 3.843.831 5.426.484 7.483c-.645 3.816-.645 7.219 0 11.034.347 2.058 1.936 3.64 3.953 3.94 2.527.374 5.551.562 8.575.562 3.018 0 6.035-.187 8.552-.561 2.015-.3 3.603-1.882 3.952-3.94.645-3.816.645-7.22 0-11.037-.347-2.055-1.936-3.638-3.953-3.937zm2.35 14.704c-.23 1.36-1.27 2.407-2.589 2.602-4.894.727-11.74.727-16.648-.001-1.32-.196-2.36-1.242-2.59-2.602-.622-3.677-.622-6.816 0-10.495.23-1.36 1.27-2.405 2.59-2.602 2.451-.363 5.388-.545 8.323-.545 2.937 0 5.874.182 8.324.545 1.32.196 2.36 1.242 2.59 2.602.622 3.68.622 6.818 0 10.496z"/><path d="M16.68 12.58l-6.16-3.96a.5.5 0 00-.77.42v7.92a.5.5 0 00.77.42l6.16-3.96a.5.5 0 000-.84z"/></g><defs><clipPath id="clip0"><path fill="#fff" d="M0 0h26v26H0z"/></clipPath></defs></svg>